<svg role="img" aria-label="Donde Cristo está, la Familia Vencerá" xmlns="http://www.w3.org/2000/svg" xmlns:xlink="http://www.w3.org/1999/xlink" xmlns:inkscape="http://www.inkscape.org/namespaces/inkscape" version="1.1" width="1253.42" height="756.168" viewBox="0 0 1253.42 756.168">
<defs>
<clipPath id="clip_1">
<path transform="matrix(1,0,0,-1,0,756.168)" d="M0 756.168H1253.425V0H0Z"/>
</clipPath>
</defs>
<g inkscape:groupmode="layer" inkscape:label="Capa 1">
<g clip-path="url(#clip_1)">
<path transform="matrix(1,0,0,-1,90.495,367.28895)" d="M0 0V3.215H-40.029V0L-38.582-1.287C-35.367-3.537-33.277-7.716-33.277-11.575V-98.544C-33.277-102.403-35.367-106.422-38.582-108.833L-40.029-109.959V-113.334H46.459L49.835-86.649H46.459L44.047-90.186C38.421-98.063 28.293-103.368 18.648-103.368H-6.752V-11.575C-6.752-7.716-4.501-3.537-1.607-1.287Z" fill="#ffc73a"/>
<path transform="matrix(1,0,0,-1,181.4848,395.58235)" d="M0 0C-20.256 0-32.312-7.877-32.312-18.97-32.312-26.364-26.686-31.991-19.612-31.991-12.54-31.991-6.913-26.364-6.913-19.612-6.913-15.594-8.842-12.057-11.575-9.807-10.771-9.163-9.163-8.681-6.913-8.681-1.286-8.681 7.234-12.218 10.449-22.829 9.324-36.171-37.778-32.956-37.778-62.535-37.778-77.003-26.364-86.648-11.575-86.648-1.929-86.648 6.751-82.469 12.057-74.431 13.825-82.63 19.934-86.648 28.615-86.648 40.671-86.648 46.459-79.093 46.459-75.075 45.173-77.325 42.761-77.325 42.761-77.325 39.546-77.325 38.26-75.717 38.26-71.538V-31.349C38.26-6.27 18.005 0 0 0M11.574-54.336C10.61-63.821 4.823-70.09-.965-70.09-6.109-70.09-11.092-65.107-11.092-57.07-11.092-43.245 3.537-40.511 11.574-34.724Z" fill="#ffc73a"/>
<path transform="matrix(1,0,0,-1,319.517,550.0877)" d="M0 0C-5.626 4.688-10.002 12.503-10.002 20.004V88.456H29.068C44.384 88.456 55.948 78.454 57.824 63.138V62.513H64.388V133.777H57.824V133.152C55.948 117.836 44.384 107.834 29.068 107.834H-10.002V198.478H39.383C58.136 198.478 77.828 188.163 88.768 172.848L93.456 166.284H100.02L93.456 217.857H-74.703V211.605L-71.89 209.105C-65.638 204.729-61.888 196.602-61.888 189.1V20.004C-61.888 12.503-65.638 4.688-71.89 0L-74.703-2.188V-8.751H3.125V-2.188ZM156.901 156.594C117.519 156.594 94.076 141.278 94.076 119.711 94.076 105.334 105.016 94.394 118.769 94.394 132.522 94.394 143.461 105.334 143.461 118.462 143.461 126.275 139.71 133.152 134.397 137.528 135.96 138.778 139.085 139.715 143.461 139.715 154.401 139.715 170.967 132.84 177.218 112.21 175.03 86.268 83.45 92.519 83.45 35.007 83.45 6.876 105.642-11.877 134.397-11.877 153.151-11.877 170.029-3.75 180.344 11.877 183.782-4.063 195.66-11.877 212.538-11.877 235.98-11.877 247.232 2.813 247.232 10.627 244.732 6.251 240.043 6.251 240.043 6.251 233.793 6.251 231.292 9.376 231.292 17.504V95.644C231.292 144.404 191.909 156.594 156.901 156.594M179.406 50.948C177.531 32.507 166.279 20.316 155.026 20.316 145.024 20.316 135.335 30.006 135.335 45.634 135.335 72.515 163.778 77.829 179.406 89.08Z" fill="#ffc73a"/>
<path transform="matrix(1,0,0,-1,738.9648,550.0877)" d="M0 0C-6.251 4.688-10.002 12.503-10.002 20.004V91.269C-10.314 115.648-.312 131.902 12.19 131.902 24.38 131.902 32.194 117.524 32.194 95.332V24.067C32.194-.625 44.384-11.877 65.013-11.877 88.768-11.877 100.02 2.813 100.02 10.627 97.52 6.251 92.519 6.251 92.519 6.251 86.58 6.251 83.767 9.376 83.767 17.504V98.458C83.767 133.152 65.951 156.594 35.007 156.594 12.502 156.594-5.313 143.779-14.065 123.463-20.316 142.529-34.694 156.594-59.074 156.594-80.016 156.594-95.019 145.967-104.083 131.276V153.156H-116.898L-168.784 143.467V136.903L-165.971 134.714C-159.72 130.339-155.656 122.212-155.656 114.71V20.004C-155.656 12.503-159.72 4.688-165.971 0L-168.784-2.188V-8.751H-90.956V-2.188L-94.081 0C-99.708 4.688-104.083 12.503-104.083 20.004V97.52C-102.833 111.585-97.207 131.902-81.579 131.902-65.013 131.902-61.887 107.209-61.887 95.332V-8.751H2.813V-2.188Z" fill="#ffc73a"/>
<path transform="matrix(1,0,0,-1,1045.5722,388.49253)" d="M0 0C16.566 0 30.006 13.44 30.006 29.693 30.006 45.947 16.566 59.699 0 59.699-16.253 59.699-29.694 45.947-29.694 29.693-29.694 13.44-16.253 0 0 0" fill="#ffc73a"/>
<path transform="matrix(1,0,0,-1,881.1718,388.49253)" d="M0 0C16.566 0 30.006 13.44 30.006 29.693 30.006 45.947 16.566 59.699 0 59.699-16.253 59.699-29.694 45.947-29.694 29.693-29.694 13.44-16.253 0 0 0" fill="#ffc73a"/>
<path transform="matrix(1,0,0,-1,988.6913,530.08389)" d="M0 0V197.853H-12.814L-64.7 188.164V181.912L-61.887 179.411C-55.636 175.035-51.573 166.909-51.573 159.407V0C-51.573-7.501-55.636-15.315-61.887-20.004L-64.7-22.191V-28.755H13.128V-22.191L10.002-20.004C4.376-15.315 0-7.501 0 0" fill="#ffc73a"/>
<path transform="matrix(1,0,0,-1,907.1147,530.08389)" d="M0 0V133.152H-12.815L-64.701 123.463V116.899L-61.888 114.71C-55.637 110.335-51.573 102.209-51.573 94.707V0C-51.573-7.501-55.637-15.315-61.888-20.004L-64.701-22.191V-28.755H13.127V-22.191L10.002-20.004C4.375-15.315 0-7.501 0 0" fill="#ffc73a"/>
<path transform="matrix(1,0,0,-1,1064.9203,521.033)" d="M0 0C1.601 3.484 3.865 6.529 6.595 9.037V124.102H-6.221L-58.106 114.412V107.848L-55.293 105.66C-49.042 101.284-44.978 93.158-44.978 85.656V-9.051C-44.978-16.552-49.042-24.366-55.293-29.055L-58.106-31.242V-37.806H-17.367Z" fill="#ffc73a"/>
<path transform="matrix(1,0,0,-1,1185.5985,499.14)" d="M0 0C-1.875-18.441-13.127-30.631-24.38-30.631-34.382-30.631-44.071-20.942-44.071-5.313-44.071 21.567-15.628 26.881 0 38.132ZM60.637-44.696C54.386-44.696 51.886-41.571 51.886-33.444V44.696C51.886 93.456 12.502 105.646-22.505 105.646-61.888 105.646-85.33 90.331-85.33 68.764-85.33 54.386-74.39 43.446-60.637 43.446-46.884 43.446-35.945 54.386-35.945 67.514-35.945 75.328-39.696 82.205-45.009 86.58-43.446 87.83-40.321 88.768-35.945 88.768-25.005 88.768-8.439 81.892-2.188 61.263-4.229 37.064-84.033 40.867-94.757-5.185-93.875-5.17-92.989-5.184-92.096-5.25L-55.221-7.992-84.72-46.462C-75.484-56.799-61.303-62.825-45.009-62.825-26.255-62.825-9.377-54.698 .937-39.07 4.376-55.011 16.253-62.825 33.132-62.825 56.574-62.825 67.826-48.134 67.826-40.321 65.326-44.696 60.637-44.696 60.637-44.696" fill="#ffc73a"/>
<path transform="matrix(1,0,0,-1,1080.0189,550.23086)" d="M0 0H-12.88L1.885 30.484C4.654 36.199 10.708 39.565 17.023 38.9L36.192 36.882 11.055 5.327C8.373 1.961 4.304 0 0 0" fill="#ffc73a"/>
<path transform="matrix(1,0,0,-1,77.203,550.81436)" d="M0 0C-3.126 6.877-.625 15.003 5.001 19.691L7.814 21.567V27.819H-77.203V21.567L-71.265 18.129C-65.013 14.378-58.762 6.877-55.949 0L21.566-198.79H43.134L122.524 0C125.65 7.189 131.589 14.378 138.153 18.129L144.091 21.567V27.819H93.769V21.567L96.582 19.691C102.208 15.003 104.396 7.189 101.583 0L50.01-128.775Z" fill="#ffc73a"/>
<path transform="matrix(1,0,0,-1,269.1093,584.2581)" d="M0 0C-54.386 0-90.956-35.007-90.956-86.893-90.956-136.277-57.511-168.471-11.877-168.471 29.693-168.471 56.262-141.279 66.264-100.645H59.7C56.574-111.585 38.133-136.277 8.127-136.277-9.689-136.277-23.442-127.526-31.256-112.21-22.192-114.398-13.44-115.648-5.001-115.648 36.258-115.648 66.576-89.08 66.576-53.761 66.576-25.317 46.26 0 0 0M-35.944-102.208C-37.82-95.019-39.07-86.893-39.07-78.14-39.07-43.446-20.316-19.691-1.562-19.691 28.443-19.691 29.693-83.454-35.944-102.208" fill="#ffc73a"/>
<path transform="matrix(1,0,0,-1,459.767,716.78506)" d="M0 0C0-24.692 12.502-35.944 33.132-35.944 56.574-35.944 68.139-21.254 68.139-13.44 65.326-17.816 60.638-17.816 60.638-17.816 54.386-17.816 51.885-14.69 51.885-6.563V74.391C51.885 109.085 33.757 132.527 .313 132.527-21.879 132.527-40.633 121.9-51.885 104.396V129.089H-64.7L-116.585 119.399V112.835L-113.772 110.647C-107.521 106.271-103.458 98.145-103.458 90.643V-4.063C-103.458-11.564-107.521-19.379-113.772-24.067L-116.585-26.255V-32.819H-38.757V-26.255L-41.883-24.067C-47.509-19.379-51.885-11.564-51.885-4.063V73.765C-49.697 94.395-39.07 107.834-24.38 107.834-8.751 107.834 0 94.082 0 71.264ZM156.591 132.527C104.393 132.527 69.386 94.395 69.386 45.634 69.386-6.251 109.394-35.944 151.902-35.944 197.537-35.944 218.166-2.5 226.605 31.881H220.041C216.916 20.942 198.474-3.75 168.468-3.75 139.712-3.75 121.271 20.004 121.271 54.387 121.271 89.081 140.025 112.835 162.217 112.835 168.156 112.835 172.532 111.272 174.094 110.647 167.843 105.646 163.78 97.833 163.78 88.769 163.78 73.14 176.282 60.95 192.223 60.95 207.851 60.95 220.354 73.14 220.354 89.706 220.354 113.461 193.161 132.527 156.591 132.527M322.87 132.527C268.484 132.527 231.915 97.52 231.915 45.634 231.915-3.75 265.358-35.944 310.993-35.944 352.564-35.944 379.132-8.752 389.134 31.881H382.57C379.444 20.942 361.003-3.75 330.997-3.75 313.181-3.75 299.428 5.001 291.614 20.316 300.678 18.129 309.43 16.878 317.869 16.878 359.128 16.878 389.446 43.447 389.446 78.766 389.446 107.209 369.13 132.527 322.87 132.527M286.926 30.318C285.05 37.508 283.8 45.634 283.8 54.387 283.8 89.081 302.554 112.835 321.308 112.835 351.314 112.835 352.564 49.073 286.926 30.318M471.645-24.067C466.019-19.379 461.643-11.564 461.643-4.063V88.456C462.268 99.395 466.331 104.396 471.332 105.333 469.77 86.893 478.521 79.392 484.46 75.953 489.461 73.14 495.399 71.577 501.65 71.577 512.278 71.577 522.905 76.266 529.156 86.58 541.033 107.834 526.03 132.527 497.587 132.527 483.522 132.527 470.394 126.275 461.643 115.961V129.089H448.828L396.942 119.399V112.835L399.755 110.647C406.006 106.271 410.069 98.145 410.069 90.643V-4.063C410.069-11.564 406.006-19.379 399.755-24.067L396.942-26.255V-32.819H474.771V-26.255Z" fill="#ffc73a"/>
<path transform="matrix(1,0,0,-1,1173.6405,735.22598)" d="M0 0C-20.629 0-30.943 15.315-30.943 36.882V90.018C-30.943 138.777-70.327 150.968-105.333 150.968-144.716 150.968-168.159 135.652-168.159 114.085-168.159 99.708-157.219 88.768-143.466 88.768-129.713 88.768-118.773 99.708-118.773 112.835-118.773 120.649-122.524 127.526-127.838 131.902-126.275 133.151-123.15 134.089-118.773 134.089-107.834 134.089-91.268 127.213-85.017 106.584-87.205 80.641-178.786 86.893-178.786 29.38-178.786 1.25-156.594-17.503-129.401-17.503-108.771-17.503-92.519-6.877-82.517 14.377-73.765-6.564-48.135-20.942-15.003-20.942 44.697-20.942 63.138 25.63 63.138 54.073 63.138 85.33 40.946 106.584 15.316 106.584-4.063 106.584-17.816 94.081-17.816 77.203-17.816 62.513-7.814 51.26 7.814 51.26 26.88 51.26 37.195 67.827 31.569 84.392 43.759 78.141 43.759 59.387 43.759 58.449 43.759 28.443 28.131 0 0 0M-82.829 45.321C-84.704 26.88-95.957 14.69-107.209 14.69-117.211 14.69-126.9 24.379-126.9 40.008-126.9 67.201-98.457 72.202-82.829 83.454Z" fill="#ffc73a"/>
<path transform="matrix(1,0,0,-1,343.5258,5.156128)" d="M0 0C3.683-2.578 6.077-7.365 6.077-11.784V-111.397C6.077-115.816 3.683-120.419 0-123.181L-1.656-124.47V-128.337H46.769C83.778-128.337 109.004-101.822 109.004-61.13 109.004-20.622 84.146 5.156 46.217 5.156H-1.656V1.473ZM36.458-6.26H43.086C64.445-6.26 78.438-26.514 78.438-60.762 78.438-95.746 64.077-116.921 42.166-116.921H36.458ZM113.237-80.648C113.237-110.108 133.308-130.178 162.584-130.178 192.597-130.178 212.482-109.556 212.482-79.911 212.482-50.635 193.148-30.933 163.504-30.933 133.491-30.933 113.237-50.819 113.237-80.648M143.803-81.016C143.803-57.816 151.536-42.533 162.768-42.533 174.184-42.533 181.917-57.448 181.917-80.648 181.917-103.479 174.184-118.762 162.584-118.762 151.352-118.762 143.803-103.848 143.803-81.016M284.105-109.003C284.105-123.55 291.471-130.178 303.623-130.178 317.433-130.178 324.246-121.524 324.246-116.921 322.589-119.499 319.827-119.499 319.827-119.499 316.145-119.499 314.671-117.658 314.671-112.87V-65.181C314.671-44.743 303.992-30.933 284.29-30.933 271.217-30.933 260.169-37.194 253.541-47.505V-32.958H245.991L215.426-38.667V-42.533L217.083-43.822C220.766-46.4 223.159-51.188 223.159-55.606V-111.397C223.159-115.816 220.766-120.419 217.083-123.181L215.426-124.47V-128.337H261.274V-124.47L259.433-123.181C256.118-120.419 253.541-115.816 253.541-111.397V-65.549C254.829-53.397 261.09-45.479 269.744-45.479 278.95-45.479 284.105-53.581 284.105-67.022ZM388.138-5.708C391.82-8.286 394.029-13.073 394.029-17.492V-39.587C388.689-34.248 381.324-30.933 370.646-30.933 343.763-30.933 325.35-51.003 325.35-81.016 325.35-110.477 343.026-130.178 368.804-130.178 381.141-130.178 389.426-125.759 395.134-118.21 397.897-126.496 404.341-130.178 413.547-130.178 427.356-130.178 434.169-121.524 434.169-116.921 432.512-119.499 429.75-119.499 429.75-119.499 426.067-119.499 424.595-117.658 424.595-112.87V5.156H416.861L386.48-.552V-4.235ZM374.696-118.762C363.464-118.762 355.915-103.848 355.915-80.095 355.915-57.816 362.544-42.533 374.328-42.533 385.191-42.533 392.925-55.238 394.029-75.492V-85.803C392.925-105.874 385.375-118.762 374.696-118.762M488.854-30.933C456.815-30.933 435.272-51.556 435.272-82.121 435.272-111.213 454.975-130.178 481.856-130.178 506.346-130.178 521.997-114.159 527.889-90.223H524.022C522.181-96.667 511.317-111.213 493.641-111.213 483.146-111.213 475.044-106.058 470.44-97.035 475.78-98.324 480.937-99.061 485.907-99.061 510.213-99.061 528.073-83.41 528.073-62.604 528.073-45.848 516.104-30.933 488.854-30.933M467.679-91.143C466.574-86.908 465.838-82.121 465.838-76.965 465.838-56.527 476.886-42.533 487.933-42.533 505.609-42.533 506.346-80.095 467.679-91.143" fill="#ffc73a"/>
<path transform="matrix(1,0,0,-1,278.4467,132.76795)" d="M0 0C-42.165 0-69.416-27.435-69.416-69.785-69.416-110.292-44.559-137.359-7.917-137.359 21.175-137.359 39.956-120.235 49.898-91.696H46.032C38.852-107.715 23.753-118.394 4.051-118.394-24.489-118.394-38.851-95.931-38.851-65.733-38.851-34.432-23.752-11.416 3.867-11.416 5.893-11.416 8.102-11.6 10.127-11.784 5.156-15.835 2.025-22.095 2.025-29.276 2.025-41.245 11.601-51.003 23.753-51.003 35.905-51.003 45.664-41.245 45.664-28.908 45.664-12.705 28.908 0 0 0M96.111-130.362C92.797-127.601 90.22-122.998 90.22-118.578V-64.077C90.588-57.632 92.981-54.686 95.928-54.134 95.007-64.997 100.162-69.416 103.661-71.441 106.606-73.099 110.105-74.02 113.788-74.02 120.048-74.02 126.309-71.257 129.991-65.181 136.988-52.661 128.149-38.114 111.395-38.114 103.108-38.114 95.375-41.797 90.22-47.873V-40.14H82.67L52.104-45.848V-49.714L53.762-51.003C57.444-53.581 59.838-58.369 59.838-62.788V-118.578C59.838-122.998 57.444-127.601 53.762-130.362L52.104-131.651V-135.518H97.953V-131.651ZM138.825-17.676C138.825-27.251 146.743-35.168 156.317-35.168 166.076-35.168 173.994-27.251 173.994-17.676 173.994-8.102 166.076 0 156.317 0 146.743 0 138.825-8.102 138.825-17.676M177.492-130.362C174.178-127.601 171.601-122.998 171.601-118.578V-40.14H164.051L133.485-45.848V-49.714L135.143-51.003C138.825-53.581 141.219-58.369 141.219-62.788V-118.578C141.219-122.998 138.825-127.601 135.143-130.362L133.485-131.651V-135.518H179.334V-131.651ZM234.387-117.105C234.387-122.998 229.415-127.232 218.368-127.232 211.371-127.232 208.057-125.575 206.216-124.286 209.346-121.524 211.555-117.658 211.555-113.055 211.555-104.953 204.927-98.324 197.009-98.324 188.724-98.324 182.278-104.953 182.278-113.423 182.278-125.943 197.193-137.359 223.708-137.359 248.749-137.359 263.663-127.048 263.663-109.74 263.663-78.807 215.975-74.02 215.975-56.896 215.975-51.556 220.762-47.137 229.231-47.137 234.571-47.137 239.543-48.794 241.016-50.451 238.069-52.661 236.229-56.527 236.229-60.578 236.229-67.759 241.937-73.467 249.302-73.467 256.482-73.467 262.19-67.759 262.19-60.21 262.19-49.346 250.038-38.114 225.917-38.114 202.349-38.114 186.882-48.61 186.882-65.181 186.882-93.537 234.387-99.429 234.387-117.105M276.18-116.185C276.18-130.731 283.361-137.359 295.514-137.359 309.507-137.359 316.136-128.706 316.136-124.102 314.663-126.68 311.717-126.68 311.717-126.68 308.219-126.68 306.562-124.839 306.562-120.051V-51.556H317.425V-40.14H306.562V-23.016H295.146C295.146-34.248 287.964-40.14 276.18-40.14H267.526V-51.556H276.18ZM317.977-87.829C317.977-117.29 338.047-137.359 367.323-137.359 397.336-137.359 417.222-116.737 417.222-87.092 417.222-57.816 397.888-38.114 368.243-38.114 338.23-38.114 317.977-58 317.977-87.829M348.542-88.197C348.542-64.997 356.275-49.714 367.507-49.714 378.923-49.714 386.656-64.629 386.656-87.829 386.656-110.661 378.923-125.943 367.323-125.943 356.091-125.943 348.542-111.029 348.542-88.197" fill="#ffc73a"/>
<path transform="matrix(1,0,0,-1,774.4711,170.8822)" d="M0 0C-32.038 0-53.581-20.623-53.581-51.188-53.581-80.28-33.879-99.245-6.997-99.245 17.492-99.245 33.144-83.226 39.035-59.29H35.169C33.327-65.734 22.464-80.28 4.787-80.28-5.708-80.28-13.81-75.124-18.413-66.102-13.073-67.391-7.917-68.127-2.946-68.127 21.359-68.127 39.22-52.477 39.22-31.67 39.22-14.915 27.251 0 0 0M-21.175-60.21C-22.279-55.975-23.016-51.188-23.016-46.032-23.016-25.594-11.968-11.6-.921-11.6 16.756-11.6 17.492-49.162-21.175-60.21M95.743-78.991C95.743-84.883 90.771-89.118 79.725-89.118 72.728-89.118 69.413-87.461 67.572-86.172 70.702-83.41 72.911-79.543 72.911-74.94 72.911-66.838 66.283-60.21 58.365-60.21 50.08-60.21 43.635-66.838 43.635-75.309 43.635-87.829 58.55-99.245 85.064-99.245 110.105-99.245 125.02-88.934 125.02-71.626 125.02-40.692 77.331-35.905 77.331-18.781 77.331-13.441 82.118-9.022 90.588-9.022 95.928-9.022 100.899-10.68 102.372-12.337 99.426-14.546 97.585-18.413 97.585-22.464 97.585-29.645 103.293-35.353 110.658-35.353 117.839-35.353 123.547-29.645 123.547-22.096 123.547-11.232 111.395 0 87.273 0 63.705 0 48.238-10.496 48.238-27.067 48.238-55.423 95.743-61.315 95.743-78.991M137.535-78.07C137.535-92.617 144.717-99.245 156.869-99.245 170.862-99.245 177.491-90.591 177.491-85.988 176.019-88.566 173.072-88.566 173.072-88.566 169.574-88.566 167.917-86.725 167.917-81.937V-13.441H178.78V-2.025H167.917V15.098H156.501C156.501 3.867 149.319-2.025 137.535-2.025H128.882V-13.441H137.535ZM243.592 36.825 226.1 38.667 214.684 15.098H226.468ZM224.995 0C201.795 0 187.985-9.022 187.985-21.727 187.985-30.197 194.43-36.642 202.531-36.642 210.633-36.642 217.077-30.197 217.077-22.464 217.077-17.861 214.868-13.81 211.738-11.232 212.658-10.496 214.5-9.943 217.077-9.943 223.522-9.943 233.281-13.994 236.964-26.146 235.675-41.429 181.725-37.747 181.725-71.626 181.725-88.197 194.798-99.245 211.738-99.245 222.785-99.245 232.729-94.457 238.805-85.251 240.83-94.642 247.827-99.245 257.769-99.245 271.579-99.245 278.208-90.591 278.208-85.988 276.735-88.566 273.973-88.566 273.973-88.566 270.291-88.566 268.817-86.725 268.817-81.937V-35.905C268.817-7.181 245.617 0 224.995 0M238.252-62.235C237.147-73.099 230.519-80.28 223.891-80.28 217.998-80.28 212.29-74.572 212.29-65.366 212.29-49.531 229.046-46.4 238.252-39.772Z" fill="#ffc73a"/>
<path transform="matrix(1,0,0,-1,795.476,352.84654)" d="M0 0C-7.206 3.262-14.464 6.345-21.734 9.383-26.446 11.335-31.174 13.229-35.909 15.099V47.29H-65.957V26.481C-80.622 31.831-95.365 36.834-110.208 41.632-117.738 44.047-125.894 46.544-134.991 47.856-137.271 48.164-139.586 48.411-141.963 48.533-143.401 48.605-144.864 48.65-146.317 48.65-147.257 48.65-148.194 48.631-149.118 48.588-153.841 48.38-158.358 47.774-162.659 46.989-166.952 46.172-171.034 45.203-174.937 44.203L-186.342 41.18C-193.899 39.133-201.447 37.052-208.973 34.885-224.031 30.57-239.029 26.013-253.945 21.138-268.86 16.26-283.716 11.147-298.465 5.614-305.835 2.826-313.192-.009-320.503-3.022-327.821-6.02-335.111-9.119-342.318-12.547-334.348-12.134-326.461-11.392-318.6-10.547-310.734-9.718-302.914-8.712-295.105-7.658-279.5-5.508-264.001-2.937-248.561-.132-233.121 2.677-217.763 5.803-202.465 9.172-194.814 10.846-187.185 12.607-179.563 14.402L-168.201 17.13C-164.507 18.022-160.965 18.846-157.561 19.461-154.166 20.092-150.907 20.543-147.808 20.699-146.849 20.766-145.917 20.79-144.984 20.79-144.401 20.79-143.818 20.78-143.226 20.766-141.691 20.728-140.108 20.579-138.505 20.421-132.053 19.73-125.07 18-117.568 16.09-102.414 12.22-87.159 8.553-71.824 5.242-56.487 1.917-41.083-1.171-25.556-3.837-17.785-5.146-10.003-6.412-2.168-7.498 5.662-8.602 13.521-9.6 21.476-10.271 14.391-6.594 7.209-3.244 0 0" fill="#ffc73a"/>
</g>
</g>
</svg>
