<?xml version='1.0' encoding='utf-8'?>
<svg xmlns="http://www.w3.org/2000/svg" xmlns:ns1="http://www.inkscape.org/namespaces/inkscape" xmlns:xlink="http://www.w3.org/1999/xlink" version="1.1" viewBox="0 0 433.075 200.26">
<defs>
<clipPath id="clip_1">
<path transform="matrix(1,0,0,-1,0,200.26)" d="M0 200.26H433.075V0H0Z" />
</clipPath>
<path id="font_2_24" d="M.05999756 0V.69999697H.52900698V.5299988H.24499512V.43299867H.4750061V.26800538H.24499512V.16999817H.5359955V0H.05999756Z" fill="#f4f1e8" />
<path id="font_2_95" d="M.3480072-.011993408C.28600566-.011993408 .2326711-.0006612142 .18800354 .022003174 .14333599 .04466756 .109166469 .0771637 .085494998 .11949158 .0618337 .16182964 .05000305 .21233113 .05000305 .2709961V.69999697H.23500061V.2709961C.23500061 .24766033 .23966472 .22766114 .24899292 .21099854 .2583313 .19433594 .27149964 .18167115 .28849793 .17300415 .30549623 .16433716 .32599894 .16000366 .3500061 .16000366 .37400309 .16000366 .39466859 .16433716 .41200257 .17300415 .42933656 .18167115 .4424998 .19433594 .4514923 .21099854 .460495 .22766114 .46499635 .24766033 .46499635 .2709961V.69999697H.6499939V.2709961C.6499939 .21233113 .6379954 .16182964 .6139984 .11949158 .5900014 .0771637 .5555013 .04466756 .51049807 .022003174 .46549479-.0006612142 .41133119-.011993408 .3480072-.011993408Z" fill="#f4f1e8" />
<path id="font_2_81" d="M.05999756 0V.69999697H.3500061C.40266929 .69999697 .44933067 .6898295 .48999024 .6694946 .53066 .6491699 .56249496 .62117007 .585495 .585495 .60849508 .54983016 .6199951 .508667 .6199951 .46200563 .6199951 .41600547 .6086629 .3750051 .58599856 .33900453 .56333419 .30300395 .53266909 .27500407 .4940033 .25500489L.647995 0H.43600465L.30999757 .22200012C.30599977 .22200012 .30200196 .22200012 .29800416 .22200012 .29400636 .22200012 .29000346 .22200012 .28599549 .22200012H.24499512V0H.05999756M.24499512 .3919983H.33999635C.3566691 .3919983 .3713379 .39499919 .3840027 .40100099 .39666749 .40700279 .40666709 .41533409 .41400147 .42599488 .42133586 .43666587 .42500306 .44866944 .42500306 .46200563 .42500306 .4820048 .4171702 .49850465 .40150453 .5115051 .38583885 .5245056 .3653361 .53100588 .33999635 .53100588H.24499512V.3919983Z" fill="#f4f1e8" />
<path id="font_2_68" d="M.3999939-.011993408C.32666017-.011993408 .26182557 .0035044354 .20549011 .034500123 .14916484 .06549581 .10500082 .108159389 .07299805 .16249085 .04099528 .21683248 .024993897 .27900187 .024993897 .34899903 .024993897 .41966758 .04099528 .48216758 .07299805 .536499 .10500082 .5908305 .14900208 .6334941 .20500183 .66448977 .2610016 .6954956 .32533265 .71099856 .397995 .71099856 .47132875 .71099856 .5359955 .6954956 .59199526 .66448977 .647995 .6334941 .6919963 .5908305 .723999 .536499 .7560018 .48216758 .7720032 .41966758 .7720032 .34899903 .7720032 .27900187 .7561696 .21683248 .72450259 .16249085 .6928355 .108159389 .6490021 .06549581 .5930023 .034500123 .53700259 .0035044354 .4726664-.011993408 .3999939-.011993408M.3999939 .15800476C.43599449 .15800476 .46766154 .16616822 .49499513 .18249512 .5223287 .1988322 .54366049 .22133382 .5589905 .25 .5743306 .27866618 .58200076 .31166587 .58200076 .34899903 .58200076 .38633219 .5741679 .41949974 .5585022 .4485016 .5428365 .47750346 .521169 .50016787 .49349977 .51649478 .46583048 .53283187 .43399558 .54100039 .397995 .54100039 .3626658 .54100039 .3311666 .53283187 .3034973 .51649478 .27582804 .50016787 .25416056 .47750346 .23849488 .4485016 .22282918 .41949974 .21499634 .38633219 .21499634 .34899903 .21499634 .31166587 .22299703 .27866618 .23899842 .25 .2549998 .22133382 .27683006 .1988322 .30448915 .18249512 .33215843 .16616822 .36399333 .15800476 .3999939 .15800476Z" fill="#f4f1e8" />
<path id="font_2_78" d="M.05999756 0V.69999697H.3500061C.40266929 .69999697 .44933067 .6896617 .48999024 .6689911 .53066 .6483307 .56249496 .6196645 .585495 .58299258 .60849508 .54633077 .6199951 .5039978 .6199951 .45599366 .6199951 .40799967 .60849508 .36549888 .585495 .3284912 .56249496 .29149375 .53066 .26249696 .48999024 .24150086 .44933067 .22050476 .40266929 .21000672 .3500061 .21000672H.24499512V0H.05999756M.24499512 .38000489H.34500123C.3703308 .38000489 .39082847 .38700358 .40649415 .40100099 .42215983 .41499839 .42999269 .43332926 .42999269 .45599366 .42999269 .47799684 .42215983 .4959971 .40649415 .5099945 .39082847 .5240021 .3703308 .53100588 .34500123 .53100588H.24499512V.38000489Z" fill="#f4f1e8" />
<path id="font_2_1" d="M.007003784 0 .2749939 .69999697H.47399903L.7420044 0H.54600527L.5050049 .11199951H.2440033L.20300293 0H.007003784M.30400086 .2749939H.44500733L.375 .46899415 .30400086 .2749939Z" fill="#f4f1e8" />
<path id="font_3_40" d="M.035003663 .3600006C.035003663 .40266419 .04266866 .4451599 .057998659 .4874878 .07332865 .52982589 .095825199 .5678253 .12548828 .6014862 .15516155 .6351573 .19132996 .66232809 .23399353 .68299868 .27666728 .70366927 .32500205 .7140045 .3789978 .7140045 .44366456 .7140045 .49899803 .69967147 .54499819 .67100527 .59099838 .64233908 .6256663 .6050059 .6490021 .55900576L.56100466 .5C.55100509 .5213318 .53900149 .5393321 .5249939 .55400088 .5109965 .5686696 .4956614 .5803375 .47898866 .5890045 .46232606 .5976715 .44499208 .60383608 .4269867 .60749819 .4089915 .6111705 .3916626 .6130066 .375 .6130066 .33766685 .6130066 .30499778 .60550436 .2769928 .5904999 .248998 .5754954 .22549947 .555659 .20649719 .5309906 .18749492 .5063324 .17316182 .4786682 .16349793 .44799806 .15383403 .41732789 .14900208 .3866628 .14900208 .3560028 .14900208 .32133485 .15466817 .28833518 .16600037 .25700379 .17733257 .22567241 .19316609 .19800313 .21350098 .17399597 .23383586 .14999898 .2580007 .13083394 .28599549 .116500858 .31400047 .10216776 .34467063 .09500122 .37800599 .09500122 .39533998 .09500122 .4131724 .09716797 .4315033 .101501468 .4498342 .10583496 .46749879 .11283366 .48449708 .12249756 .50149539 .13216146 .5171611 .1443278 .53149417 .15899658 .5458272 .17366536 .55766299 .19133504 .56700137 .21200562L.66000369 .15899658C.64867147 .1323344 .6326701 .10883585 .6119995 .08850098 .5913289 .0681661 .56799319 .050999959 .5419922 .037002565 .5160014 .023005167 .48850505 .012339274 .45950318 .005004883 .4305013-.0023295086 .4019979-.005996704 .37399293-.005996704 .32399497-.005996704 .27833048 .0046691896 .23699951 .026000977 .19566854 .047332765 .16000366 .075164798 .13000489 .10949707 .1000061 .14382935 .07667033 .18283081 .05999756 .22650147 .04333496 .27017213 .035003663 .31467185 .035003663 .3600006Z" fill="#f4f1e8" />
<path id="font_3_52" d="M.375-.005004883C.32433067-.005004883 .27816264 .005162557 .23649597 .025497437 .1948293 .045832319 .15899658 .0728302 .1289978 .10649109 .09899902 .14016216 .07583109 .17866516 .05949402 .22200012 .043167116 .26533509 .035003663 .30966697 .035003663 .35499574 .035003663 .4023285 .043670656 .44766236 .06100464 .4909973 .07833862 .5343323 .10216776 .5726674 .13249207 .6060028 .16282654 .6393382 .1988271 .6658376 .24049378 .6855011 .28216044 .7051646 .32766215 .71499636 .3769989 .71499636 .42766825 .71499636 .47383628 .7044932 .5155029 .68348696 .5571696 .66249087 .5928345 .6349945 .62249758 .6009979 .65217086 .56700137 .6751709 .5285034 .6914978 .48550416 .7078349 .44250489 .7160034 .39867149 .7160034 .3540039 .7160034 .30667115 .7074992 .26133729 .6904907 .21800232 .67349246 .17466736 .6496582 .13650005 .61898806 .103500369 .58832809 .070500697 .55216476 .04416402 .51049807 .024490357 .4688314 .0048268639 .42366538-.005004883 .375-.005004883M.14900208 .35499574C.14900208 .32166038 .15433248 .289327 .16499329 .2579956 .17566426 .22666423 .1908315 .19900005 .210495 .17500305 .23016866 .15100606 .2540029 .13183594 .28199769 .117492679 .31000266 .103159587 .3413391 .09599304 .37600709 .09599304 .41199748 .09599304 .4438273 .10349528 .47149659 .118499759 .49916587 .13350423 .52266439 .15333557 .5419922 .17799378 .56133016 .20266216 .57599899 .23033142 .58599856 .2610016 .5959981 .29167176 .6009979 .32300315 .6009979 .35499574 .6009979 .38900248 .5956624 .4215037 .58499148 .4524994 .5743306 .4834951 .5591634 .5108287 .53948977 .5345001 .51982626 .5581716 .49615989 .5771739 .4684906 .59150698 .4408315 .60584 .41000367 .6130066 .37600709 .6130066 .3400065 .6130066 .30800376 .60550436 .27999879 .5904999 .252004 .5754954 .2283376 .5559947 .20899964 .5319977 .18966167 .5080007 .17482503 .48049928 .16448975 .4494934 .15416463 .4184977 .14900208 .3869985 .14900208 .35499574Z" fill="#f4f1e8" />
<path id="font_3_51" d="M.19200135 .5V0H.08000183V.7100067H.16799927L.5740051 .19799805V.70899966H.68699648V0H.59399417L.19200135 .5Z" fill="#f4f1e8" />
<path id="font_3_58" d="M.125 .7100067 .33900453 .14100647 .55200198 .7100067H.67100527L.3869934 0H.29100038L.005996704 .7100067H.125Z" fill="#f4f1e8" />
<path id="font_3_42" d="M.56700137 .09899902V0H.08000183V.7100067H.55799868V.61099246H.19200135V.40899659H.5090027V.31599427H.19200135V.09899902H.56700137Z" fill="#f4f1e8" />
<path id="font_3_46" d="M.08000183 0V.7100067H.19200135V0H.08000183Z" fill="#f4f1e8" />
<path id="font_3_157" d="M.40299989 .7839966 .33099366 .80599978 .3880005 .91600039H.49299623L.40299989 .7839966M.375-.005004883C.32433067-.005004883 .27816264 .005162557 .23649597 .025497437 .1948293 .045832319 .15899658 .0728302 .1289978 .10649109 .09899902 .14016216 .07583109 .17866516 .05949402 .22200012 .043167116 .26533509 .035003663 .30966697 .035003663 .35499574 .035003663 .4023285 .043670656 .44766236 .06100464 .4909973 .07833862 .5343323 .10216776 .5726674 .13249207 .6060028 .16282654 .6393382 .1988271 .6658376 .24049378 .6855011 .28216044 .7051646 .32766215 .71499636 .3769989 .71499636 .42766825 .71499636 .47383628 .7044932 .5155029 .68348696 .5571696 .66249087 .5928345 .6349945 .62249758 .6009979 .65217086 .56700137 .6751709 .5285034 .6914978 .48550416 .7078349 .44250489 .7160034 .39867149 .7160034 .3540039 .7160034 .30667115 .7074992 .26133729 .6904907 .21800232 .67349246 .17466736 .6496582 .13650005 .61898806 .103500369 .58832809 .070500697 .55216476 .04416402 .51049807 .024490357 .4688314 .0048268639 .42366538-.005004883 .375-.005004883M.14900208 .35499574C.14900208 .32166038 .15433248 .289327 .16499329 .2579956 .17566426 .22666423 .1908315 .19900005 .210495 .17500305 .23016866 .15100606 .2540029 .13183594 .28199769 .117492679 .31000266 .103159587 .3413391 .09599304 .37600709 .09599304 .41199748 .09599304 .4438273 .10349528 .47149659 .118499759 .49916587 .13350423 .52266439 .15333557 .5419922 .17799378 .56133016 .20266216 .57599899 .23033142 .58599856 .2610016 .5959981 .29167176 .6009979 .32300315 .6009979 .35499574 .6009979 .38900248 .5956624 .4215037 .58499148 .4524994 .5743306 .4834951 .5591634 .5108287 .53948977 .5345001 .51982626 .5581716 .49615989 .5771739 .4684906 .59150698 .4408315 .60584 .41000367 .6130066 .37600709 .6130066 .3400065 .6130066 .30800376 .60550436 .27999879 .5904999 .252004 .5754954 .2283376 .5559947 .20899964 .5319977 .18966167 .5080007 .17482503 .48049928 .16448975 .4494934 .15416463 .4184977 .14900208 .3869985 .14900208 .35499574Z" fill="#f4f1e8" />
</defs>
<g ns1:groupmode="layer" ns1:label="Capa 1">
<g clip-path="url(#clip_1)">
<use data-text="E" xlink:href="#font_2_24" transform="matrix(78,0,0,-78,0,183.0994)" />
<use data-text="U" xlink:href="#font_2_95" transform="matrix(78,0,0,-78,45.708,183.0994)" />
<use data-text="R" xlink:href="#font_2_81" transform="matrix(78,0,0,-78,100.308,183.0994)" />
<use data-text="O" xlink:href="#font_2_68" transform="matrix(78,0,0,-78,152.022,183.0994)" />
<use data-text="P" xlink:href="#font_2_78" transform="matrix(78,0,0,-78,214.188,183.0994)" />
<use data-text="A" xlink:href="#font_2_1" transform="matrix(78,0,0,-78,262.938,183.0994)" />
<path transform="matrix(1,0,0,-1,18.7197,108.86939)" d="M0 0H6.63C8.347 0 9.711 .469 10.726 1.404 11.739 2.341 12.246 3.536 12.246 4.992 12.246 6.447 11.739 7.605 10.726 8.463 9.711 9.321 8.347 9.75 6.63 9.75H0ZM0 21.217H4.603C6.266 21.217 7.617 21.632 8.658 22.465 9.698 23.296 10.219 24.466 10.219 25.975 10.219 27.482 9.698 28.652 8.658 29.484 7.617 30.315 6.266 30.732 4.603 30.732H0ZM-14.04-12.714V41.887H5.616C9.411 41.887 12.766 41.313 15.679 40.17 18.59 39.026 20.878 37.258 22.542 34.866 24.206 32.474 25.038 29.432 25.038 25.74 25.038 24.075 24.57 22.437 23.634 20.826 22.698 19.214 21.397 17.732 19.734 16.381 22.125 15.08 23.972 13.377 25.272 11.271 26.571 9.165 27.223 6.578 27.223 3.511 27.223 .026 26.415-2.925 24.805-5.343 23.191-7.761 20.969-9.594 18.136-10.842 15.301-12.09 12.038-12.714 8.347-12.714Z" fill="#f4f1e8" />
<path transform="matrix(1,0,0,-1,52.5713,121.58319)" d="M0 0V54.601H14.431V13.26H36.895V0Z" fill="#f4f1e8" />
<path transform="matrix(1,0,0,-1,121.4463,109.258998)" d="M0 0C2.808 0 5.277 .636 7.41 1.911 9.541 3.185 11.205 4.939 12.401 7.176 13.598 9.411 14.196 11.985 14.196 14.898 14.196 17.81 13.584 20.397 12.363 22.659 11.141 24.921 9.45 26.688 7.293 27.963 5.135 29.236 2.651 29.874-.156 29.874-2.913 29.874-5.37 29.236-7.527 27.963-9.686 26.688-11.376 24.921-12.598 22.659-13.819 20.397-14.431 17.81-14.431 14.898-14.431 11.985-13.807 9.411-12.559 7.176-11.311 4.939-9.607 3.185-7.449 1.911-5.292 .636-2.809 0 0 0M0-13.26C-5.721-13.26-10.777-12.051-15.171-9.633-19.566-7.215-23.01-3.888-25.506 .351-28.002 4.589-29.25 9.438-29.25 14.898-29.25 20.409-28.002 25.284-25.506 29.523-23.01 33.761-19.578 37.089-15.21 39.507-10.842 41.925-5.824 43.134-.156 43.134 5.563 43.134 10.607 41.925 14.976 39.507 19.344 37.089 22.775 33.761 25.271 29.523 27.768 25.284 29.016 20.409 29.016 14.898 29.016 9.438 27.78 4.589 25.311 .351 22.841-3.888 19.422-7.215 15.054-9.633 10.686-12.051 5.667-13.26 0-13.26" fill="#f4f1e8" />
<path transform="matrix(1,0,0,-1,183.6113,109.258998)" d="M0 0C.571 0 1.092 .025 1.56 .078 2.027 .129 2.521 .207 3.042 .312L-1.872 5.304 7.254 13.962 12.87 8.19C13.285 9.177 13.61 10.23 13.845 11.349 14.079 12.467 14.196 13.65 14.196 14.898 14.196 17.862 13.584 20.475 12.363 22.737 11.141 24.999 9.45 26.767 7.293 28.041 5.135 29.314 2.651 29.952-.156 29.952-2.913 29.952-5.37 29.314-7.527 28.041-9.686 26.767-11.376 24.999-12.598 22.737-13.819 20.475-14.431 17.862-14.431 14.898-14.431 11.985-13.807 9.411-12.559 7.176-11.311 4.939-9.607 3.185-7.449 1.911-5.292 .636-2.809 0 0 0M18.798-15.756 13.572-10.374C11.595-11.31 9.464-12.025 7.176-12.519 4.887-13.013 2.496-13.26 0-13.26-5.721-13.26-10.777-12.051-15.171-9.633-19.566-7.215-23.01-3.888-25.506 .351-28.002 4.589-29.25 9.438-29.25 14.898-29.25 19.058-28.536 22.854-27.105 26.286-25.676 29.718-23.661 32.708-21.061 35.256-18.461 37.803-15.393 39.767-11.856 41.146-8.32 42.522-4.421 43.212-.156 43.212 5.563 43.212 10.607 42.003 14.976 39.585 19.344 37.167 22.775 33.825 25.271 29.562 27.768 25.298 29.016 20.409 29.016 14.898 29.016 11.518 28.534 8.346 27.573 5.382 26.61 2.418 25.22-.234 23.399-2.574L27.768-7.02Z" fill="#f4f1e8" />
<path transform="matrix(1,0,0,-1,241.7207,122.51879)" d="M0 0C-4.836 0-8.996 .885-12.479 2.651-15.964 4.419-18.629 6.954-20.475 10.257-22.321 13.559-23.243 17.497-23.243 22.074V55.536H-8.813V22.074C-8.813 20.253-8.45 18.693-7.722 17.394-6.994 16.094-5.967 15.104-4.641 14.43-3.314 13.753-1.716 13.416 .156 13.416 2.028 13.416 3.64 13.753 4.992 14.43 6.344 15.104 7.371 16.094 8.073 17.394 8.775 18.693 9.126 20.253 9.126 22.074V55.536H23.557V22.074C23.557 17.497 22.62 13.559 20.748 10.257 18.876 6.954 16.186 4.419 12.676 2.651 9.165 .885 4.94 0 0 0" fill="#f4f1e8" />
<path transform="matrix(1,0,0,-1,273.8564,121.58319)" d="M0 0V54.601H36.582V41.34H14.431V33.774H32.37V20.904H14.431V13.26H37.128V0Z" fill="#f4f1e8" />
<path transform="matrix(1,0,0,-1,340.8154,181.29419)" d="M0 0C2.547 23.198 4.622 46.447 6.211 69.731 7.8 93.014 8.909 116.33 9.534 139.659 9.885 152.729 10.082 165.805 10.131 178.88 10.144 182.105 5.241 182.091 5.131 178.88 4.512 160.785 5.823 142.648 8.971 124.819 10.525 116.019 12.538 107.298 15.003 98.707 17.338 90.568 19.968 82.443 23.334 74.667 26.166 68.127 29.852 61.646 35.24 56.864 36.568 55.686 37.995 54.594 39.5 53.649 41.135 52.625 42.989 51.533 44.929 51.3 49.266 50.777 51.798 55.526 52.985 59 55.4 66.069 53.31 74.365 47.662 79.284 41.844 84.35 34.005 85.791 26.562 86.525 17.192 87.45 7.759 87.16-1.554 85.813-8.581 84.796-16.217 83.094-21.465 77.948-22.684 76.753-23.731 75.356-24.55 73.86-25.593 71.954-23.871 69.621-21.727 70.188 8.413 78.153 38.034 88.06 66.892 99.852 75.002 103.165 83.053 106.622 91.042 110.22 92.272 110.774 92.568 112.563 91.938 113.641 91.197 114.907 89.753 115.094 88.518 114.537 60.436 101.889 31.536 91.065 2.062 82.129-6.267 79.604-14.642 77.233-23.056 75.009-22.115 73.785-21.174 72.561-20.233 71.337-17.27 76.754-11.039 78.904-5.336 80.109 2.699 81.809 11.077 82.285 19.271 82.008 26.179 81.774 33.887 81.37 40.206 78.26 43.013 76.877 45.546 74.926 47.131 72.184 48.655 69.546 49.216 66.423 48.882 63.406 48.732 62.047 48.363 60.652 47.805 59.403 47.479 58.675 46.577 56.474 45.661 56.239 45.169 56.114 44.351 56.662 43.929 56.88 43.171 57.271 42.433 57.7 41.717 58.162 40.422 58.999 39.232 59.953 38.109 61.01 33.382 65.462 30.207 71.289 27.652 77.19 24.617 84.202 22.291 91.58 20.151 98.906 17.823 106.884 15.884 114.975 14.342 123.141 11.255 139.486 9.808 156.133 9.99 172.767 10.013 174.805 10.062 176.843 10.131 178.88H5.131C5.043 155.543 4.479 132.208 3.429 108.894 2.379 85.58 .848 62.288-1.165 39.038-2.292 26.011-3.573 12.998-5 0-5.148-1.344-3.746-2.5-2.5-2.5-1.026-2.5-.148-1.348 0 0" fill="#ffc73a" />
</g>
<use data-text="C" xlink:href="#font_3_40" transform="matrix(34,0,0,-34,4.6792,58.403596)" />
<use data-text="O" xlink:href="#font_3_52" transform="matrix(34,0,0,-34,36.605199,58.403596)" />
<use data-text="N" xlink:href="#font_3_51" transform="matrix(34,0,0,-34,71.0812,58.403596)" />
<use data-text="V" xlink:href="#font_3_58" transform="matrix(34,0,0,-34,106.0672,58.403596)" />
<use data-text="E" xlink:href="#font_3_42" transform="matrix(34,0,0,-34,138.0272,58.403596)" />
<use data-text="N" xlink:href="#font_3_51" transform="matrix(34,0,0,-34,167.43721,58.403596)" />
<use data-text="C" xlink:href="#font_3_40" transform="matrix(34,0,0,-34,202.42322,58.403596)" />
<use data-text="I" xlink:href="#font_3_46" transform="matrix(34,0,0,-34,234.58722,58.403596)" />
<use data-text="Ó" xlink:href="#font_3_157" transform="matrix(34,0,0,-34,252.74323,58.403596)" />
<use data-text="N" xlink:href="#font_3_51" transform="matrix(34,0,0,-34,287.21925,58.403596)" />
</g>
</svg>